<?xml version="1.0" encoding="UTF-8" standalone="no"?>
<svg
   xmlns:dc="http://purl.org/dc/elements/1.1/"
   xmlns:cc="http://creativecommons.org/ns#"
   xmlns:rdf="http://www.w3.org/1999/02/22-rdf-syntax-ns#"
   xmlns:svg="http://www.w3.org/2000/svg"
   xmlns="http://www.w3.org/2000/svg"
   xmlns:sodipodi="http://sodipodi.sourceforge.net/DTD/sodipodi-0.dtd"
   xmlns:inkscape="http://www.inkscape.org/namespaces/inkscape"
   inkscape:version="1.0beta2 (2b71d25, 2019-12-03)"
   sodipodi:docname="srgb-spectrum.svg"
   id="svg121"
   fill="none"
   height="380"
   width="540"
   version="1.1">
  <metadata
     id="metadata125">
    <rdf:RDF>
      <cc:Work
         rdf:about="">
        <dc:format>image/svg+xml</dc:format>
        <dc:type
           rdf:resource="http://purl.org/dc/dcmitype/StillImage" />
        <dc:title></dc:title>
      </cc:Work>
    </rdf:RDF>
  </metadata>
  <sodipodi:namedview
     inkscape:current-layer="svg121"
     inkscape:window-maximized="0"
     inkscape:window-y="123"
     inkscape:window-x="353"
     inkscape:cy="190"
     inkscape:cx="270"
     inkscape:zoom="1.3902192"
     showgrid="false"
     id="namedview123"
     inkscape:window-height="852"
     inkscape:window-width="1108"
     inkscape:pageshadow="2"
     inkscape:pageopacity="0"
     guidetolerance="10"
     gridtolerance="10"
     objecttolerance="10"
     borderopacity="1"
     inkscape:document-rotation="0"
     bordercolor="#666666"
     pagecolor="#ffffff" />
  <defs
     id="defs75">
    <linearGradient
       id="spectrum">
      <stop
         id="stop10"
         stop-color="#000001"
         offset="0%" />
      <stop
         id="stop12"
         stop-color="#010002"
         offset="3%" />
      <stop
         id="stop14"
         stop-color="#020007"
         offset="6%" />
      <stop
         id="stop16"
         stop-color="#060013"
         offset="9%" />
      <stop
         id="stop18"
         stop-color="#170039"
         offset="16%" />
      <stop
         id="stop20"
         stop-color="#1D004E"
         offset="19%" />
      <stop
         id="stop22"
         stop-color="#1D005B"
         offset="20%" />
      <stop
         id="stop24"
         stop-color="#18006B"
         offset="22%" />
      <stop
         id="stop26"
         stop-color="#000879"
         offset="23%" />
      <stop
         id="stop28"
         stop-color="#002061"
         offset="25%" />
      <stop
         id="stop30"
         stop-color="#00334D"
         offset="28%" />
      <stop
         id="stop32"
         stop-color="#004245"
         offset="31%" />
      <stop
         id="stop34"
         stop-color="#005446"
         offset="34%" />
      <stop
         id="stop36"
         stop-color="#007C4F"
         offset="41%" />
      <stop
         id="stop38"
         stop-color="#00884D"
         offset="44%" />
      <stop
         id="stop40"
         stop-color="#008C48"
         offset="45%" />
      <stop
         id="stop42"
         stop-color="#00912F"
         offset="48%" />
      <stop
         id="stop44"
         stop-color="#159300"
         offset="50%" />
      <stop
         id="stop46"
         stop-color="#409000"
         offset="52%" />
      <stop
         id="stop48"
         stop-color="#7E8000"
         offset="56%" />
      <stop
         id="stop50"
         stop-color="#A56400"
         offset="61%" />
      <stop
         id="stop52"
         stop-color="#B44A00"
         offset="64%" />
      <stop
         id="stop54"
         stop-color="#BA2700"
         offset="67%" />
      <stop
         id="stop56"
         stop-color="#B90C00"
         offset="69%" />
      <stop
         id="stop58"
         stop-color="#B00016"
         offset="70%" />
      <stop
         id="stop60"
         stop-color="#A4001F"
         offset="72%" />
      <stop
         id="stop62"
         stop-color="#8B0021"
         offset="75%" />
      <stop
         id="stop64"
         stop-color="#72001D"
         offset="78%" />
      <stop
         id="stop66"
         stop-color="#310009"
         offset="88%" />
      <stop
         id="stop68"
         stop-color="#220005"
         offset="91%" />
      <stop
         id="stop70"
         stop-color="#0D0001"
         offset="97%" />
      <stop
         id="stop72"
         stop-color="#070001"
         offset="100%" />
    </linearGradient>
  </defs>
  <rect
     style="fill:#cccccc"
     id="rect77"
     fill="white"
     height="380"
     width="540" />
  <g
     id="g89"
     transform="translate(40,20)"
     stroke-linecap="square"
     stroke-width="3"
     stroke="white">
    <rect
       id="rect79"
       fill="url(#spectrum)"
       stroke="none"
       height="300"
       width="480"
       y="0"
       x="0" />
    <path
       id="path81"
       d="M0,300C24,299 46,295 69,290C80,287 91,287 101,283C109,280 117,274 124,268C134,261 145,252 152,242C166,221 173,195 180,171C183,160 186,149 189,138C196,113 204,88 216,64C221,54 225,42 233,33C235,31 238,30 240,27C243,25 245,22 248,20C250,18 252,17 255,16C260,13 265,10 270,10C277,10 280,15 285,19C288,21 292,22 294,24C302,31 307,41 311,50C320,68 327,87 334,106C341,126 348,146 354,166C362,190 370,213 381,235C391,254 402,275 422,287C440,297 460,298 480,299" />
    <path
       id="path83"
       d="M0,300C20,299 39,296 58,289C65,287 71,283 77,280C86,277 96,274 103,268C110,262 116,254 122,247C132,236 143,225 150,212C162,191 168,166 174,143C179,126 183,109 188,91C192,74 196,56 204,39C208,31 213,24 219,17C222,14 225,11 229,10C234,10 237,14 240,17C243,19 245,20 248,22C251,27 254,32 257,37C270,58 276,81 283,104C288,120 293,136 298,151C305,172 311,193 319,213C324,229 331,244 339,258C347,270 357,281 369,288C382,295 398,297 413,299C435,300 458,300 480,300" />
    <path
       id="path85"
       d="M0,297C3,296 5,295 8,293C14,287 18,279 21,270C25,258 27,245 30,232C36,203 40,172 45,142C49,120 54,98 58,76C61,61 65,46 69,31C70,27 72,21 73,17C74,15 75,12 77,11C79,9 81,11 83,12C86,15 88,19 90,23C93,30 94,37 96,44C98,53 101,63 105,72C107,77 111,81 113,86C119,103 122,122 126,141C130,164 134,187 141,209C144,221 147,232 152,243C156,252 162,261 169,269C173,275 177,280 182,284C204,301 232,299 259,300C284,301 309,300 334,300C383,300 431,300 480,300" />
    <line
       id="line87"
       stroke="white"
       y2="300"
       x2="480"
       y1="300"
       x1="0" />
  </g>
  <g
     id="g117"
     fill="black"
     stroke="none"
     text-anchor="middle"
     font-size="20"
     font-family="Nimbus Roman No9 L, Times, serif">
    <text
       id="text91"
       y="350"
       x="55.5">400</text>
    <text
       id="text93"
       y="350"
       x="130.5">450</text>
    <text
       id="text95"
       y="350"
       x="205.5">500</text>
    <text
       id="text97"
       y="350"
       x="280.5">550</text>
    <text
       id="text99"
       y="350"
       x="355.5">600</text>
    <text
       id="text101"
       y="350"
       x="430.5">650</text>
    <text
       id="text103"
       y="350"
       x="505.5">700</text>
    <text
       id="text105"
       y="370"
       x="280">Wavelength (nm)</text>
    <text
       id="text107"
       transform="translate(20,170) rotate(-90)">Normalized cone response (linear energy)</text>
    <g
       id="g115"
       fill="white">
      <text
         id="text109"
         y="50"
         x="145">S</text>
      <text
         id="text111"
         y="50"
         x="230">M</text>
      <text
         id="text113"
         y="50"
         x="355">L</text>
    </g>
  </g>
  <path
     id="path119"
     d="M30.5,10.5l499,0l0,319l-499,0l0,-319M40.5,10.5l0,3M40.5,326.5l0,3M55.5,10.5l0,6M55.5,323.5l0,6M70.5,10.5l0,3M70.5,326.5l0,3M85.5,10.5l0,3M85.5,326.5l0,3M100.5,10.5l0,3M100.5,326.5l0,3M115.5,10.5l0,3M115.5,326.5l0,3M130.5,10.5l0,6M130.5,323.5l0,6M145.5,10.5l0,3M145.5,326.5l0,3M160.5,10.5l0,3M160.5,326.5l0,3M175.5,10.5l0,3M175.5,326.5l0,3M190.5,10.5l0,3M190.5,326.5l0,3M205.5,10.5l0,6M205.5,323.5l0,6M220.5,10.5l0,3M220.5,326.5l0,3M235.5,10.5l0,3M235.5,326.5l0,3M250.5,10.5l0,3M250.5,326.5l0,3M265.5,10.5l0,3M265.5,326.5l0,3M280.5,10.5l0,6M280.5,323.5l0,6M295.5,10.5l0,3M295.5,326.5l0,3M310.5,10.5l0,3M310.5,326.5l0,3M325.5,10.5l0,3M325.5,326.5l0,3M340.5,10.5l0,3M340.5,326.5l0,3M355.5,10.5l0,6M355.5,323.5l0,6M370.5,10.5l0,3M370.5,326.5l0,3M385.5,10.5l0,3M385.5,326.5l0,3M400.5,10.5l0,3M400.5,326.5l0,3M415.5,10.5l0,3M415.5,326.5l0,3M430.5,10.5l0,6M430.5,323.5l0,6M445.5,10.5l0,3M445.5,326.5l0,3M460.5,10.5l0,3M460.5,326.5l0,3M475.5,10.5l0,3M475.5,326.5l0,3M490.5,10.5l0,3M490.5,326.5l0,3M505.5,10.5l0,6M505.5,323.5l0,6M520.5,10.5l0,3M520.5,326.5l0,3"
     stroke-width="1"
     stroke="black" />
</svg>
